<mxfile host="app.diagrams.net" modified="2022-03-29T05:46:19.186Z" agent="5.0 (Macintosh)" etag="vAgsMMg7rAEXirCsQ31m" version="17.2.4" type="github">
  <diagram id="iV54BVIo1iGlyr5KOa1i" name="Page-1">
    <mxGraphModel dx="946" dy="524" grid="0" gridSize="10" guides="1" tooltips="1" connect="1" arrows="1" fold="1" page="1" pageScale="1" pageWidth="850" pageHeight="1100" math="0" shadow="0">
      <root>
        <mxCell id="0" />
        <mxCell id="1" parent="0" />
        <mxCell id="9njeNLCj6n6u6ArehlOI-2" value="" style="shape=image;html=1;verticalAlign=top;verticalLabelPosition=bottom;labelBackgroundColor=#ffffff;imageAspect=0;aspect=fixed;image=https://cdn4.iconfinder.com/data/icons/ionicons/512/icon-social-github-128.png" vertex="1" parent="1">
          <mxGeometry x="538" y="345" width="128" height="128" as="geometry" />
        </mxCell>
        <mxCell id="9njeNLCj6n6u6ArehlOI-3" value="" style="shape=image;html=1;verticalAlign=top;verticalLabelPosition=bottom;labelBackgroundColor=#ffffff;imageAspect=0;aspect=fixed;image=https://cdn4.iconfinder.com/data/icons/socialcones/508/Gitlab-128.png" vertex="1" parent="1">
          <mxGeometry x="151" y="417" width="128" height="128" as="geometry" />
        </mxCell>
        <mxCell id="9njeNLCj6n6u6ArehlOI-4" value="" style="editableCssRules=.*;shape=image;verticalLabelPosition=bottom;labelBackgroundColor=#ffffff;verticalAlign=top;aspect=fixed;imageAspect=0;image=data:image/svg+xml,PHN2ZyB4bWxucz0iaHR0cDovL3d3dy53My5vcmcvMjAwMC9zdmciIHhtbG5zOnY9Imh0dHBzOi8vdmVjdGEuaW8vbmFubyIgd2lkdGg9IjcwMi44NDYzMTM0NzY1NjI1IiBoZWlnaHQ9IjY4MS45NjcxMDIwNTA3ODEyIiB2aWV3Qm94PSIxMC4wMDEwMjYxNTM1NjQ0NTMgMTAuMDAwOTMzNjQ3MTU1NzYyIDcwMi44NDYzMTM0NzY1NjI1IDY4MS45NjcxMDIwNTA3ODEyIj4mI3hhOwk8c3R5bGUgdHlwZT0idGV4dC9jc3MiPiYjeGE7CS5zdDB7ZmlsbDojMzI2Y2U1O30mI3hhOwkuc3Qxe2ZpbGw6I2ZmZjt9JiN4YTsJPC9zdHlsZT4mI3hhOwk8cGF0aCBjbGFzcz0ic3QwIiBkPSJNMzU4Ljk4NyAxMC4wNmMtNi4yMTMuMzEzLTEyLjMwMSAxLjg1NC0xNy45MDYgNC41MzFMOTYuNzM3IDEzMS4zNDJjLTEyLjgxMSA2LjExOC0yMi4xMTYgMTcuNjg5LTI1LjI4MSAzMS40MzhsLTYwLjI4MSAyNjIuMjVjLTIuODEyIDEyLjIwNy0uNTI0IDI1LjAyNCA2LjM0NCAzNS41MzFhNDYuMzUgNDYuMzUgMCAwIDAgMi42NTYgMy42ODhsMTY5LjEyNSAyMTAuMjgxYzguODY4IDExLjAyMiAyMi4zMTMgMTcuNDQgMzYuNTMxIDE3LjQzOGwyNzEuMjE5LS4wNjJjMTQuMjEyLjAxIDI3LjY1Ny02LjM5NiAzNi41MzEtMTcuNDA2bDE2OS4wNjMtMjEwLjMxM2M4Ljg3My0xMS4wMjggMTIuMTk3LTI1LjQ2NCA5LjAzMS0zOS4yMTlsLTYwLjM3NS0yNjIuMjVjLTMuMTY1LTEzLjc0OC0xMi40Ny0yNS4zMTktMjUuMjgxLTMxLjQzN0wzODEuNjQzIDE0LjU5MmMtNy4wNS0zLjM2OC0xNC44NDEtNC45MjYtMjIuNjU2LTQuNTMxeiIvPiYjeGE7CTxwYXRoIGNsYXNzPSJzdDEgc3QyIiBkPSJNMzYxLjQwOCA5OS4zMDhjLTguMDc3LjAwMS0xNC42MjYgNy4yNzYtMTQuNjI1IDE2LjI1IDAgLjEzOC4wMjguMjY5LjAzMS40MDYtLjAxMiAxLjIxOS0uMDcxIDIuNjg4LS4wMzEgMy43NS4xOTMgNS4xNzYgMS4zMjEgOS4xMzcgMiAxMy45MDYgMS4yMyAxMC4yMDcgMi4yNjEgMTguNjY3IDEuNjI1IDI2LjUzMS0uNjE5IDIuOTY1LTIuODAzIDUuNjc3LTQuNzUgNy41NjNsLS4zNDQgNi4xODhjLTguNzc3LjcyNy0xNy42MTIgMi4wNTktMjYuNDM3IDQuMDYzLTM3Ljk3NSA4LjYyMi03MC42NyAyOC4xODMtOTUuNTYyIDU0LjU5NC0xLjYxNS0xLjEwMi00LjQ0MS0zLjEyOS01LjI4MS0zLjc1LTIuNjExLjM1My01LjI1IDEuMTU4LTguNjg3LS44NDQtNi41NDUtNC40MDYtMTIuNTA2LTEwLjQ4Ny0xOS43MTktMTcuODEyLTMuMzA1LTMuNTA0LTUuNjk4LTYuODQxLTkuNjI1LTEwLjIxOS0uODkyLS43NjctMi4yNTMtMS44MDUtMy4yNS0yLjU5NC0zLjA3LTIuNDQ4LTYuNjkxLTMuNzI0LTEwLjE4Ny0zLjg0NC00LjQ5Ni0uMTU0LTguODI0IDEuNjA0LTExLjY1NiA1LjE1Ni01LjAzNSA2LjMxNS0zLjQyMyAxNS45NjggMy41OTQgMjEuNTYzLjA3MS4wNTcuMTQ3LjEwMS4yMTkuMTU2Ljk2NC43ODIgMi4xNDUgMS43ODMgMy4wMzEgMi40MzggNC4xNjcgMy4wNzcgNy45NzMgNC42NTEgMTIuMTI1IDcuMDk0IDguNzQ3IDUuNDAyIDE1Ljk5OCA5Ljg4MSAyMS43NSAxNS4yODEgMi4yNDYgMi4zOTQgMi42MzkgNi42MTMgMi45MzggOC40MzhsNC42ODggNC4xODhjLTI1LjA5MyAzNy43NjQtMzYuNzA3IDg0LjQwOS0yOS44NDQgMTMxLjkzOGwtNi4xMjUgMS43ODFjLTEuNjE0IDIuMDg1LTMuODk1IDUuMzY1LTYuMjgxIDYuMzQ0LTcuNTI1IDIuMzctMTUuOTk0IDMuMjQxLTI2LjIxOSA0LjMxMy00LjguMzk5LTguOTQyLjE2MS0xNC4wMzEgMS4xMjUtMS4xMi4yMTItMi42ODEuNjE5LTMuOTA2LjkwNi0uMDQzLjAwOS0uMDgyLjAyMi0uMTI1LjAzMS0uMDY3LjAxNS0uMTU1LjA0OC0uMjE5LjA2My04LjYyIDIuMDgzLTE0LjE1OCAxMC4wMDYtMTIuMzc1IDE3LjgxM3MxMC4yMDMgMTIuNTU3IDE4Ljg3NSAxMC42ODhjLjA2My0uMDE0LjE1NC0uMDE3LjIxOS0uMDMxLjA5OC0uMDIyLjE4NC0uMDcuMjgxLS4wOTQgMS4yMDktLjI2NSAyLjcyNC0uNTYxIDMuNzgxLS44NDQgNS4wMDMtMS4zNCA4LjYyNy0zLjMwOCAxMy4xMjUtNS4wMzEgOS42NzctMy40NzEgMTcuNjkyLTYuMzcgMjUuNS03LjUgMy4yNjEtLjI1NSA2LjY5NyAyLjAxMiA4LjQwNiAyLjk2OWw2LjM3NS0xLjA5NGMxNC42NyA0NS40ODMgNDUuNDE0IDgyLjI0NSA4NC4zNDQgMTA1LjMxMmwtMi42NTYgNi4zNzVjLjk1NyAyLjQ3NSAyLjAxMyA1LjgyNSAxLjMgOC4yNjktMi44MzkgNy4zNjEtNy43MDEgMTUuMTMxLTEzLjIzOCAyMy43OTMtMi42ODEgNC4wMDItNS40MjUgNy4xMDgtNy44NDQgMTEuNjg4LS41NzkgMS4wOTYtMS4zMTYgMi43NzktMS44NzUgMy45MzgtMy43NTkgOC4wNDItMS4wMDIgMTcuMzA1IDYuMjE5IDIwLjc4MSA3LjI2NiAzLjQ5OCAxNi4yODQtLjE5MSAyMC4xODctOC4yNS4wMDYtLjAxMS4wMjYtLjAyLjAzMS0uMDMxcy0uMDA0LS4wMjMgMC0uMDMxYy41NTYtMS4xNDMgMS4zNDQtMi42NDQgMS44MTMtMy43MTkgMi4wNzItNC43NDcgMi43NjItOC44MTUgNC4yMTktMTMuNDA2IDMuODctOS43MiA1Ljk5Ni0xOS45MTkgMTEuMzIzLTI2LjI3NCAxLjQ1OS0xLjc0IDMuODM3LTIuNDA5IDYuMzAyLTMuMDdsMy4zMTMtNmMzMy45MzggMTMuMDI3IDcxLjkyNyAxNi41MjIgMTA5Ljg3NSA3LjkwNmExODkuNzcgMTg5Ljc3IDAgMCAwIDI1LjA5NC03LjU2MmwzLjEyNSA1LjYyNWMyLjUwNi44MTUgNS4yNCAxLjIzNiA3LjQ2OSA0LjUzMSAzLjk4NSA2LjgwOSA2LjcxMSAxNC44NjQgMTAuMDMxIDI0LjU5NCAxLjQ1NyA0LjU5MSAyLjE3OCA4LjY1OSA0LjI1IDEzLjQwNi40NzIgMS4wODIgMS4yNTYgMi42MDUgMS44MTMgMy43NSAzLjg5NSA4LjA4NSAxMi45NDIgMTEuNzg3IDIwLjIxOSA4LjI4MSA3LjIxOS0zLjQ3OCA5Ljk4LTEyLjc0IDYuMjE5LTIwLjc4MWwtMS45MDYtMy45MzdjLTIuNDE5LTQuNTgtNS4xNjMtNy42NTQtNy44NDQtMTEuNjU2LTUuNTM3LTguNjYyLTEwLjEzLTE1Ljg1OC0xMi45NjktMjMuMjE5LTEuMTg3LTMuNzk3LjItNi4xNTggMS4xMjUtOC42MjUtLjU1NC0uNjM1LTEuNzM5LTQuMjItMi40MzctNS45MDYgNDAuNDU3LTIzLjg4OCA3MC4yOTktNjIuMDIxIDg0LjMxMy0xMDYuMDYyIDEuODkyLjI5NyA1LjE4Mi44NzkgNi4yNSAxLjA5NCAyLjItMS40NTEgNC4yMjItMy4zNDQgOC4xODgtMy4wMzEgNy44MDggMS4xMjkgMTUuODIzIDQuMDMgMjUuNSA3LjUgNC40OTggMS43MjMgOC4xMjIgMy43MjMgMTMuMTI1IDUuMDYzIDEuMDU3LjI4MyAyLjU3Mi41NDcgMy43ODEuODEzLjA5Ny4wMjQuMTgzLjA3MS4yODEuMDk0LjA2NS4wMTUuMTU2LjAxNy4yMTkuMDMxIDguNjcyIDEuODY3IDE3LjA5NC0yLjg3OSAxOC44NzUtMTAuNjg3cy0zLjc1NC0xNS43MzItMTIuMzc1LTE3LjgxMmMtMS4yNTQtLjI4NS0zLjAzMi0uNzY5LTQuMjUtMS01LjA4OS0uOTY0LTkuMjMxLS43MjYtMTQuMDMxLTEuMTI1LTEwLjIyNS0xLjA3MS0xOC42OTMtMS45NDMtMjYuMjE5LTQuMzEyLTMuMDY4LTEuMTktNS4yNTEtNC44NDEtNi4zMTMtNi4zNDRsLTUuOTA2LTEuNzE5YzMuMDYyLTIyLjE1NCAyLjIzNy00NS4yMTEtMy4wNjItNjguMjgxLTUuMzQ4LTIzLjI4NS0xNC44LTQ0LjU4MS0yNy40MDYtNjMuMzQ0bDUuMTg4LTQuNjU2Yy4yMzctMi42MjQuMDMzLTUuMzc2IDIuNzUtOC4yODEgNS43NTEtNS40MDEgMTMuMDAzLTkuODc5IDIxLjc1LTE1LjI4MSA0LjE1Mi0yLjQ0MyA3Ljk5LTQuMDE3IDEyLjE1Ni03LjA5NC45NDItLjY5NiAyLjIyOS0xLjc5OCAzLjIxOS0yLjU5NCA3LjAxNS01LjU5NiA4LjYzMS0xNS4yNDggMy41OTQtMjEuNTYycy0xNC43OTctNi45MDktMjEuODEyLTEuMzEyYy0uOTk5Ljc5MS0yLjM1NCAxLjgyMy0zLjI1IDIuNTk0LTMuOTI3IDMuMzc4LTYuMzUxIDYuNzE0LTkuNjU2IDEwLjIxOS03LjIxMiA3LjMyNi0xMy4xNzQgMTMuNDM4LTE5LjcxOSAxNy44NDQtMi44MzYgMS42NTEtNi45OSAxLjA4LTguODc1Ljk2OWwtNS41NjIgMy45NjljLTMxLjcxOS0zMy4yNjEtNzQuOTA1LTU0LjUyNS0xMjEuNDA2LTU4LjY1NmwtLjM0NC02LjUzMWMtMS45MDQtMS44MjItNC4yMDMtMy4zNzctNC43ODEtNy4zMTItLjYzNi03Ljg2NC40MjYtMTYuMzI1IDEuNjU2LTI2LjUzMS42NzktNC43NjkgMS44MDctOC43MyAyLTEzLjkwNi4wNDQtMS4xNzctLjAyNi0yLjg4NC0uMDMxLTQuMTU2LS4wMDEtOC45NzQtNi41NDgtMTYuMjUxLTE0LjYyNS0xNi4yNXptLTE4LjMxMiAxMTMuNDM4bC00LjM0NCA3Ni43MTktLjMxMi4xNTZjLS4yOTEgNi44NjMtNS45NCAxMi4zNDQtMTIuODc1IDEyLjM0NGExMi44MiAxMi44MiAwIDAgMS03LjU5NC0yLjQ2OWwtLjEyNS4wNjMtNjIuOTA2LTQ0LjU5NGMxOS4zMzQtMTkuMDExIDQ0LjA2My0zMy4wNiA3Mi41NjItMzkuNTMxIDUuMjA2LTEuMTgyIDEwLjQxLTIuMDU5IDE1LjU5NC0yLjY4N3ptMzYuNjU2IDBjMzMuMjczIDQuMDkyIDY0LjA0NSAxOS4xNTkgODcuNjI1IDQyLjI1bC02Mi41IDQ0LjMxMy0uMjE5LS4wOTRhMTIuOTEgMTIuOTEgMCAwIDEtMTcuNjg3LTIuMzc1Yy0xLjc3MS0yLjIyMS0yLjcwMS00LjgzMi0yLjgxMi03LjQ2OWwtLjA2Mi0uMDMxek0yMzIuMTI2IDI4My42Mmw1Ny40MzcgNTEuMzc1LS4wNjIuMzEzYTEyLjg4IDEyLjg4IDAgMCAxIDEuNjI1IDE3Ljc1IDEyLjg5IDEyLjg5IDAgMCAxLTYuNjg3IDQuNDA2bC0uMDYyLjI1LTczLjYyNSAyMS4yNWMtMy43NDctMzQuMjY1IDQuMzI5LTY3LjU3NCAyMS4zNzUtOTUuMzQ0em0yNTguMTU2LjAzMWM4LjUzNCAxMy44MzMgMTQuOTk3IDI5LjI4MiAxOC44NDQgNDYuMDMxIDMuODAxIDE2LjU0OCA0Ljc1NSAzMy4wNjcgMy4xODggNDkuMDMxbC03NC0yMS4zMTItLjA2Mi0uMzEyYy02LjYyNy0xLjgxMS0xMC42OTktOC41NTItOS4xNTYtMTUuMzEyLjYzMi0yLjc3IDIuMTAyLTUuMTEzIDQuMDk0LTYuODQ0bC0uMDMxLS4xNTYgNTcuMTI1LTUxLjEyNXptLTE0MC42NTYgNTUuMzEzaDIzLjUzMWwxNC42MjUgMTguMjgxLTUuMjUgMjIuODEzLTIxLjEyNSAxMC4xNTYtMjEuMTg3LTEwLjE4Ny01LjI1LTIyLjgxMnptNzUuNDM4IDYyLjU2M2ExMi44MyAxMi44MyAwIDAgMSAyLjk2OS4yMTlsLjEyNS0uMTU2IDc2LjE1NiAxMi44NzVjLTExLjE0NiAzMS4zMTMtMzIuNDczIDU4LjQ0LTYwLjk2OSA3Ni41OTRsLTI5LjU2Mi03MS40MDYuMDk0LS4xMjVjLTIuNzE2LTYuMzEuMDAyLTEzLjcxIDYuMjUtMTYuNzE5IDEuNi0uNzcgMy4yNzEtMS4xOTcgNC45MzgtMS4yODF6bS0xMjcuOTA2LjMxM2ExMi45IDEyLjkgMCAwIDEgMTIuMzc1IDEwLjAzMSAxMi43NyAxMi43NyAwIDAgMS0uNzE5IDcuOTM4bC4yMTkuMjgxLTI5LjI1IDcwLjY4OGMtMjcuMzQ3LTE3LjU0OS00OS4xMjktNDMuODI0LTYwLjc4MS03Ni4wNjJsNzUuNS0xMi44MTIuMTI1LjE1NmMuODQ1LS4xNTUgMS43MDEtLjIzIDIuNTMxLS4yMTl6bTYzLjc4MSAzMC45NjljMi4wMjQtLjA3NCA0LjA3OS4zNDEgNi4wMzEgMS4yODEgMi41NiAxLjIzMyA0LjUzNyAzLjE3MyA1Ljc4MSA1LjVoLjI4MWwzNy4yMTkgNjcuMjVjLTQuODMgMS42MTktOS43OTYgMy4wMDMtMTQuODc1IDQuMTU2LTI4LjQ2NSA2LjQ2My01Ni44MzkgNC41MDUtODIuNTMxLTQuMjVsMzcuMTI1LTY3LjEyNWguMDYzYTEyLjkxIDEyLjkxIDAgMCAxIDEwLjkwNi02LjgxMnoiIHN0cm9rZT0ibm9uZSIgc3Ryb2tlLXdpZHRoPSIuMjUiLz4mI3hhOzwvc3ZnPg==;fontColor=default;" vertex="1" parent="1">
          <mxGeometry x="342" y="348" width="167" height="158.65" as="geometry" />
        </mxCell>
        <mxCell id="9njeNLCj6n6u6ArehlOI-5" value="" style="sketch=0;aspect=fixed;html=1;points=[];align=center;image;fontSize=12;image=img/lib/mscae/Docker.svg;" vertex="1" parent="1">
          <mxGeometry x="121" y="530" width="202" height="165.64" as="geometry" />
        </mxCell>
        <mxCell id="9njeNLCj6n6u6ArehlOI-6" value="" style="outlineConnect=0;dashed=0;verticalLabelPosition=bottom;verticalAlign=top;align=center;html=1;shape=mxgraph.aws3.ec2;fillColor=#F58534;gradientColor=none;" vertex="1" parent="1">
          <mxGeometry x="342" y="534" width="120" height="93" as="geometry" />
        </mxCell>
        <mxCell id="9njeNLCj6n6u6ArehlOI-8" value="" style="outlineConnect=0;dashed=0;verticalLabelPosition=bottom;verticalAlign=top;align=center;html=1;shape=mxgraph.aws3.lambda_function;fillColor=#F58534;gradientColor=none;" vertex="1" parent="1">
          <mxGeometry x="369" y="664" width="107" height="82" as="geometry" />
        </mxCell>
        <mxCell id="9njeNLCj6n6u6ArehlOI-9" value="" style="aspect=fixed;html=1;points=[];align=center;image;fontSize=12;image=img/lib/azure2/devops/Azure_DevOps.svg;" vertex="1" parent="1">
          <mxGeometry x="505" y="488" width="135" height="135" as="geometry" />
        </mxCell>
        <mxCell id="9njeNLCj6n6u6ArehlOI-10" value="" style="shape=image;verticalLabelPosition=bottom;labelBackgroundColor=default;verticalAlign=top;aspect=fixed;imageAspect=0;image=data:image/png,iVBORw0KGgoAAAANSUhEUgAAAVQAAACUCAMAAAD70yGHAAAAgVBMVEX///8AAADe3t78/Py5ubnl5eXFxcX4+Pjy8vIyMjJhYWGampqQkJBTU1Ovr6/Ozs6pqal9fX0aGhrq6urT09NmZmZtbW3h4eEODg44ODg9PT1FRUXo6OiFhYVcXFzAwMCTk5MfHx8qKiqAgIB0dHRDQ0NVVVUTExOrq6sdHR0sLCyS2LiLAAAKPElEQVR4nO1d22KqOhA1III3wEsr1qrVXdue/v8HHgImJIFcxoq0Ietl76LEZJFkZlYmYTBwcHBwcHBwcHBwcHBw6BR+FK1WUeR3XQ87EHrHdP+0Gy+XCC2X493zLD16Yde1+sNYp88vqBEv76nXde3+IIKvQzOfFT7i165r+Zewml50jJbYTVdd1/VvwB/OzRi99tehs146RG9LCKUYn9Oo61r/akT/oIyW2DtaZYj2t1Fa0OrcrEZ83U5pjiztuv6/EOvxjzjNsV133YZfBv/GyZTHv66b8avgne/BKUJjF2dRTO9DKca067b8EviT+3GK0JOLBXK8nu7JKULfLnIdrO9LKUbvvYDh/TlFaNR1q7rFzxx+KeKu29Ul0nY47TWrcVucIjTsum1d4dgep72dV1uw+yx6GVy9tsspQj3UWP3vtkl96V9s9dQ2pwg9d93GRwPsTE02g0EAfBI90603UE6vvQ7IatBtKx8MsMx/XYKKYHe9dNvKx2IG5ZROj8Cu2iN51YNyWglPCfDG/mQG7aCcXqp7JSlrMsy7a+VjAZf7GH0Eqmsdu2vnI+GDE3sQ48b7wFs/u2voIwFf5puxt0MXs3thq6BdLceGvR9q5bI+RKvwjvrBFwDKtES96Kp+BiZVkEahMuzJ/q4KV/u/xSKghs7+VQB4HhoZviERSN+ABYy7auujAI2IEA37BzFhFygA2J8I8AzmlIb9l4z8D6rFvnfT1kfhBn+KdLMNQsn1v9DuntmdZg2PUKl6t2c67RZYiN2xqnbHWQ0k7C/6OMk9g64bPHXV3kcgBHNKw/6ij09vLcdmV3UE5nRPbi3kwhP5CyoA2JxaAd/TQ8J+jycHKgDsZTWyACcop1Rjvj6OCfkbqHNfmutjA1ZQTqthSy4QUwV1I+x1qsBT6pncSTl8u16AKt1JY4VsAHgRlap2VO6jkhNQALBX/wOn+pBBy+ReED8eOJVMZHX684AqVDSCYrwGqljDNgptu2lx+wC77CTs5xQDksoDEwAyfWLlsSFCiFgHN4pqhbwe4zg+esKdvnguURiVaPiBSGpCV6O87GGi2cEETaCivYsz9XQVECYAaNOq0qYswS2b5HYQ04iGxLE7f8zYtg+FaGOULUuMnwTB3JPO9vH8ukSSbZUiG3QdhK72c6tSdCEPJgBozf+p8tco8NiqxNi5IHdzQgabuC2Syn7xheuuMlIjtscopy7oSgphT+jhxFTBZhPdfhX8xGfiRfwTS8qCQGrenO/Yywf1Jon3O3YUi6ROUDZKcoy+cq527CcyUvMhsC3KXq2PqTIjFLiOSkNLIbilUdbiptIkwKMhEy+G3O8JpE6kGfB1Uuk3d/w6hIRUT+BeAWDkT2bB2uoJGWkgAeCgrlteVpzVlghzUpdVBxZIzR+DpDAFqSM+FVlCamwuAb2DOKUdpHbAAq9cGUKTqpo/8NyNFtPZclKnc9pAgdSFVPxWkJr7LF/MJxJSh+YhIGx9iqmWGOjLrqtwaqoRhY8D4KS2Tygn9Q1PAWVCpkAqHihvjaUpSN3zfoiE1MB8wwLIXT+znp534j4joxQiANTmSw5xQdwYLfjLIR77CUk9EK0/fqb/fTV4tw2GqrRjfiqsQsoMVT6oF2Zblj4gpPK/5XNeFZ3EAWKCmtRLMeem4hJBQSo2sAXZIqkDD4eIy2mN1oaeephgnJHw2KR+KjbClzmGZn0NRKr4nDjXgYxSQAaAktSkHMiRuKGlJBWTgj2yGqk5fUXkPRMq20AqxY77REZqWBl1jYWFzKn1KYUNHeixPuYzipJUXLP34l/e0b6SGp6L59hAal4tnNqd8V5wA6lv0wLYVhtYfz9/VqdFWkATpkJIbUgqWTF6DBlx5gKAKizJe+gl/8YKb5flrO6VVBx+nMJmUnMvaYeEmbKBVBIbRGMuM1RC6sz8OCiAn0odII9tZPVUaM8wFgBUyf/51BJhqzPK51ZOIySkYkM2kZFaWqwv/m+Z9cfdgAncJKSe0VJRXQ4AXZmStudGCw33L7UrOqhUiTMWFLGHlMa8AEBJxeb461ma6ubxD01Fashpu82k+oBMBcAeCDK8sejH2ku6nb1RFVRBIf0fSw7C3JBOeNezIhXvijnL8we33EcqUgOuQZKempnrv+a++p67ZccY1+gaRdGOZyoAKMK+OXGKy9CN+YQhtVhp4EhlPCmPt6wqUvk4TELqk3mmkvmpCXQqL93TTzbQubIYAQuVn6mwqXpnoaMxzWFILVYtOVLRfJa8YmZXeA5i5/4G599bFVg/8wFzTupinVyxZi+jfXlIfOQdlSqVsVdJ5ycqmbAuS6kg0l8yFADknsme6UdexulDLKnYJLBJ3de6ZaWWzPU3lZ6KzlG9kBInroSi7Ey4Xof/aUgq7SuVv8Aqd0VNaPvMJpWzNJsq4oxMdGH/CrkfnnOugT9a0Ch5x8sfsTB6GWsqxF8huwOCJS9g1KeDMhPMcF8JXe0fMBfnjAoc4kdPTZWRACD3qMJNwC0TJWwTgoDpV35NOYrW8XSajsToLwz4Iger4IpaPO8HFYTB5A3zaCFOdOtAhkaFDiWuEy7Z3VQzxjIYCQD2JlMZrqcw6xccWAn5WH3NKAPA3h0qZlI97YK11Vd2DWn1H+3QJpnEFp9RYUQqnbnqYS07ZftPAAFALfz9bZj0KRpLNAVLJ3ZipQzrM19sPvjHJFKnLmmzr9QUGemLtflAxcCAVOqMSBywhrBOnwFg9akf+rf3UN9H+gAmdV9Y56tZm55WQO9T0klTrr6OayGnTgCwNzsVQzv+aeQTqgKl2sSqOa7GYocKQ6fU05hZHdKLXU/9bduP/NEI1VXYrxGfBB9JrdXYbPsxNPIf7YHaXFbhOH/lZP3wVj4aakNNw34DlYTTjFQCgL1iCoGyC9JBbXTSCqeIK864tdxMYai2qNAFBTPlmV0hlUfANoeoBAqfsloCMpSzXyotWP7ypV6c+C3vU9RKm6fzkr4tf1R96KgKxqpj+QDZfGVmSCSfUnswo2LIMqq3+0WJf5ADwQ6jwJvKb1jo62MFbjif4mYYbEqzBK29h6YO24MpBuCjfm+F6cYZGwA+kf5W9MRKlbjj+ydV6NnbE6CHoN4Eezf5NyOCH6MKh70Hp0jQ8tuoMHoRn/Jo6Z2JFXrkTVW4yzu95bBfRW1Eq6+k6oeO0oAWYwDNPjmb0Zpj1adIqoaWWP2w+WhPPUCbgI057bpVXQN2XIUR+iKhKgA+AFAHuxOnDHHntyfbm90Pwgb+lgopxlZnokLg321itfw1CTAc7yNa2Xye9w2I4O//qOG9N4t8xhj98I3fY3tPSP4JUtMNwQ347KXQZ4Lw5qWrae9EfgD8Kfz9n+hcP27LgYM/BAqCO+ftm8CbGTtYy1kPF6JuxXpm8M7pl5nt75m7O17jd8X8unwfuoD0NkRJujgIysD2sEgT5+b/FGGwHg0LjNavzndycHBwcHBwcHBwcHBwcPhV+B/ndHyxTsELawAAAABJRU5ErkJggg==;" vertex="1" parent="1">
          <mxGeometry x="505" y="638" width="204" height="88.8" as="geometry" />
        </mxCell>
        <mxCell id="9njeNLCj6n6u6ArehlOI-11" value="" style="shape=image;verticalLabelPosition=bottom;labelBackgroundColor=default;verticalAlign=top;aspect=fixed;imageAspect=0;image=data:image/png,iVBORw0KGgoAAAANSUhEUgAAAOEAAADhCAMAAAAJbSJIAAAAqFBMVEX///9fQ+lAQLL6+v45ObCilPFPK+dZOuhRL+hWN+j39/x9fce3rfTp5vtUM+heQekxMa4tLa28s/XVz/ifkfF7ZuyBbe1oTuonJ6ypqdk3N7BsU+vc1/nNxveZivDl4fvHx+aHh8vW1u1/a+3h4fJLS7aFcu5kZL7Cufbt6vypnPKLee50Xuu6uuCZmdLs7PdbW7tFGue0qfRLJOciIqtkSepZWbt1dcQVUpZjAAAF8klEQVR4nO2d63baOBSFZWMwkICBMARIm0svaZOZaUtop+//ZiMZEyxbsiVjR0en5/vTH+1a8bfK7tnWhTJGEARBEARBEARBEAThP+/vXD9B17zslt9dP0O3XI7i+MX1Q3TK5ShIptfvXT9Gh3DDIEiGf+GNY2rIHQe3Y9eP0hGZYRDEQ6RxfDVEG8eToYjjCmEc84b8ozq9RTcdZUPuOMIWx6Ihj2OAK44lQxHHj5jiqDBMpyOeOCoNeRzxlFWNIaLpqDMUjjjKqt4QS1mtMuRxHFy6fsCzqTbEEMcaQwTTsdYwLas+x9HA0POyamTI4/jL2ziaGfq8lGNq6G9ZNTf0tazaGPo5Ha0MvYyjpWEax57rh7bC2jAI9hPXD21FA8MhGcKiseH4LSfH5oxi3Niwt7u5akughvvPayeGg2S4eovP66cv8yhyYyiWAJZdT47xwzoKQ2eG4r1q0ZaLks18G4ZODXmR6zCO959nYejaUJScx27iyAMYhhAMxTLHsv1ljvHDPAqhGAZJHLcdx81sG4ZwDNNljjbjeB/OwhCWYatxzAUQkqE4zdFvI46HCQjSMAhGyflx3Gy3RT9AhudPx9cJCNUwPbHSPI7lAAI0TMtqs+cZP/wsBRCkoWgATeIoT0DYhk3iqAkgVEMRR6vpqA0gXEOrsipVUH8Mzd8dqwII29CsrBYrqFeGBtPx05d1vR9kw5rpqKqg3hmKsqo7saKsoK0bvky7NtRNR6MAtmB4dz1NOjZMT6wU41g3AdszZOxrMrJztDcsrawaB7AVQ9Z7nsZdG4rpeIpjtgr6ZoaMPf09sPhrbGYo4vgu/WnVFbQbQ8be/TM0dmxoyP9VXaY/67flX2A7hmkcuzaM++lPurCKYHuGjD0PzOLoryGPo9FH1WNDEUeD6ei1IY/jr9rp6LmhwXT03bB+OvpvyON4U/VPDgbD6rKKw5BPR20csRjqpyMaQ21ZRWSoKauoDJVlFZmhIo7YDMtlFZ9hcTpiNJTLKkpDqawiNcxNR7SGr3FEbJiVVdSG6XTEbSjiuENuyNgCveEBMkRguLPddzzDcO7kMvmt3Z7cGYbb2TcXgozdPdrsyTU2jNa/3d0/vrqx2iJvZDj/74MzP8HC5qPawHC2/depH6e3HBo7WhtGa0cBlJmsTLePLQ2jucMAypjG0c5w/sNtANk4yB0DWhhtkdsYzkL3AdznD8mO+wZb5OaG0fyb+yvxvLXFw9wxoMmqdjqaGjqdgCfSXiodkr2qO0BmaOh6Ah45NO9kep2PY1z9vVomhrPIeQAzju8W0o2u8bKqARgY8grqPoAZp7cn6UbXpKKs1hpG6wsIAczIvx9KN7r007HO0PkElJHegOVDsouR+qNabQgngBmFd/xkuHo6/d5SOR2rDIFU0DylVQzpzLqyrOoNAVXQE4p1Gum+syKOWkNgAcxQrUQV4lgsqxpDABVUiXqtTbrRNS68OyoNtxAqqBLdamI8zZdVaToqDGFNQBn9emn+zLpUVsuGUCqokooV4VJZTdSGUAOYUbnmLZXV3rGsyobOVkFNqVnVly5YTh7T6Zg3hBzAjNp9izjOx1FMx5whzAkoU78zUyqrr4bgKqgSk70naTr2+vvDjZKLn8ADmGG2uxbv83H8mv6ygR7ADNP9w/a/nOetMN4h7fS7srrEYg/Y0/+/xmqXOx528F1ZXWO5jy+VVT+wPakgl1UfsD+LkeyfXT+0Fc1Pm/gCGZIhfMiQDOFDhmQIHzIkQ/iQIRnChwzJED5kSIbwIUMyhA8ZkiF8ejvbC5a+GR6PASE2tL5g6aFh7RUSBIalQ7L4DI1udHluaHCjy3tD4zh6bFhzowuDodl09NvQZDr6bijiWP1R9d9Qd6MLkSFjT1VxRGFYGUckhhVfP4DGUPv1A3gMdWUVk6E6jrgMVWUVmyHr9QvvjugMS2UVoWEhjigNpa8fQGqYK6tYDU9xxGt4jCNmw0NZxW3Iy+p0ittQlNVb14/QOU/1f4QgCIIgCIIgCIIgiD+X/wEzo5EzDuDO6gAAAABJRU5ErkJggg==;" vertex="1" parent="1">
          <mxGeometry x="217" y="316" width="101" height="101" as="geometry" />
        </mxCell>
      </root>
    </mxGraphModel>
  </diagram>
</mxfile>
